<?xml version="1.0" standalone="no"?>
<!DOCTYPE svg PUBLIC "-//W3C//DTD SVG 20010904//EN"
 "http://www.w3.org/TR/2001/REC-SVG-20010904/DTD/svg10.dtd">
<svg version="1.0" xmlns="http://www.w3.org/2000/svg"
 width="512.000000pt" height="512.000000pt" viewBox="0 0 512.000000 512.000000"
 preserveAspectRatio="xMidYMid meet">
<metadata>
Created by potrace 1.11, written by Peter Selinger 2001-2013
</metadata>
<g transform="translate(0.000000,512.000000) scale(0.100000,-0.100000)"
fill="#000000" stroke="none">
<path d="M1910 3714 c-327 -47 -540 -169 -694 -398 -204 -303 -246 -639 -124
-986 50 -141 132 -287 220 -393 22 -27 38 -50 35 -53 -3 -3 -112 6 -243 20
-402 43 -561 56 -759 62 -188 6 -191 6 -235 -18 -29 -16 -55 -41 -75 -73 -26
-42 -30 -58 -30 -120 0 -62 4 -78 30 -121 53 -85 84 -96 314 -105 198 -9 370
-23 716 -60 590 -63 891 -80 1035 -60 119 17 210 46 267 84 75 50 173 156 200
215 82 175 -6 382 -189 448 -56 20 -158 19 -220 -2 -48 -16 -49 -16 -106 12
-116 56 -269 241 -323 389 -31 87 -32 222 -1 290 74 161 168 206 388 185 125
-12 113 -9 459 -90 273 -64 301 -72 470 -146 383 -166 665 -332 1345 -788 294
-197 363 -234 461 -243 100 -10 171 28 226 119 56 93 54 162 -8 247 -58 80
-458 378 -809 602 -91 58 -316 195 -500 304 -184 109 -393 234 -465 279 -152
94 -332 178 -576 269 -194 73 -298 101 -458 122 -96 13 -288 18 -351 9z"/>
<path d="M3040 2383 c-183 -28 -322 -141 -381 -311 -27 -75 -29 -205 -5 -284
21 -70 83 -165 139 -214 256 -223 668 -92 751 238 40 162 -4 320 -125 440 -98
99 -250 151 -379 131z"/>
</g>
</svg>
